<svg version="1" xmlns="http://www.w3.org/2000/svg" width="346.667" height="346.667" viewBox="0 0 260.000000 260.000000"><path d="M52.4 62.4c-.3.7-.4 4.2-.2 7.7l.3 6.4 16.3.3L85 77v45.5c0 28.5-.4 47.3-1.1 50.4-3.5 16.4-21.7 22.6-34.6 11.7-3.7-3.1-7.9-11.5-8.9-17.5-.6-3.7-1-4.2-2.8-3.8-1.2.3-5.6 1.1-9.8 1.8-5.2.8-7.8 1.6-7.8 2.5 0 3.3 5.1 16.8 8 21.4 7.7 11.9 21.6 17.9 38.8 16.7 17.8-1.2 28.8-9.2 35.4-25.6 2.3-5.6 2.3-6 2.6-62.4l.3-56.7H79c-21 0-26.2.3-26.6 1.4zM137 62.2V132c-.1 37.7-.1 69.3-.1 70.3.1 1.8 1.6 1.8 32.9 1.4 35.9-.4 39.1-.9 50.4-6.9 11.6-6.1 18.2-15.3 19.9-27.7 2.8-19.9-8.8-35.1-30.1-39.5l-6.1-1.2 5.4-1.7c14.8-4.7 23.6-17.9 22.5-33.8-.9-12.1-6.7-20.4-18-25.7-10.4-4.9-14.2-5.4-46.5-5.9-25-.4-30.3-.3-30.3.9zm62 17.2c8.8 3.2 13 9.3 13 18.9 0 9.7-4 15.6-13.5 19.9-4.5 2-6.9 2.3-23.7 2.6l-18.8.4V76.8l19.3.4c14.5.4 20.3.9 23.7 2.2zm3.7 60c2.9.9 7.1 3.1 9.5 4.9 6 4.6 8.2 9.5 8.2 18.2 0 11.4-4.9 18.6-15.4 22.7-4.9 1.9-8 2.2-27.2 2.6l-21.8.4v-51.4l20.8.4c15.7.4 22 .9 25.9 2.2z"/></svg>
